<?xml version="1.0" standalone="no"?>
<!DOCTYPE svg PUBLIC "-//W3C//DTD SVG 20010904//EN"
 "http://www.w3.org/TR/2001/REC-SVG-20010904/DTD/svg10.dtd">
<svg version="1.0" xmlns="http://www.w3.org/2000/svg"
 width="225.000000pt" height="225.000000pt" viewBox="0 0 225.000000 225.000000"
 preserveAspectRatio="xMidYMid meet">

<g transform="translate(0.000000,225.000000) scale(0.100000,-0.100000)"
fill="#000000" stroke="none">
<path d="M265 1828 c-173 -61 -182 -302 -13 -373 29 -11 77 -15 210 -15 95 0
203 -5 240 -10 154 -22 252 -88 303 -202 25 -56 27 -68 23 -157 -6 -115 -31
-173 -103 -240 -82 -75 -194 -111 -347 -111 l-98 0 0 -170 c0 -93 3 -170 8
-170 11 0 91 66 217 179 122 110 138 118 241 120 65 2 194 17 201 25 3 3 -11
24 -31 47 -43 51 -60 106 -51 168 21 145 171 240 359 228 77 -4 191 -30 200
-45 3 -6 -32 -158 -39 -170 -1 -1 -37 7 -81 19 -81 21 -154 20 -180 -2 -22
-18 -17 -67 9 -83 12 -8 62 -29 110 -47 106 -38 162 -78 195 -139 20 -38 23
-55 19 -115 -2 -39 -11 -85 -21 -103 -10 -19 -16 -35 -14 -37 4 -4 65 25 103
49 58 38 123 111 133 150 14 49 4 69 -46 93 l-37 18 203 3 202 2 0 545 c0 299
-3 545 -7 547 -5 2 -71 1 -148 -2 -77 -3 -120 -7 -95 -9 30 -3 37 -5 21 -8
-19 -4 -21 -7 -10 -14 10 -6 4 -9 -21 -10 -20 -1 -27 -3 -16 -6 15 -4 16 -7 5
-14 -10 -6 -10 -9 -2 -9 8 0 3 -14 -12 -35 -31 -46 -135 -151 -135 -136 0 7
-20 -3 -44 -21 -24 -18 -42 -36 -39 -41 7 -13 -64 -37 -109 -37 -27 0 -52 -8
-68 -20 l-25 -20 23 0 c12 0 22 -4 22 -8 0 -5 -72 -17 -161 -27 -128 -15 -167
-16 -193 -7 -18 7 -42 12 -54 12 -12 0 -22 6 -22 14 0 8 -10 18 -22 21 -13 4
-38 18 -56 32 -18 13 -38 23 -45 20 -15 -5 -87 30 -87 43 0 6 -3 9 -7 8 -32
-7 -142 49 -126 65 3 4 -6 11 -21 16 -14 6 -26 17 -26 26 0 8 -4 23 -9 33 -11
19 -24 69 -25 92 0 8 -7 18 -16 22 -11 5 -8 7 10 9 42 4 -158 17 -265 17 -55
0 -113 -4 -130 -10z"/>
<path d="M503 1244 c-23 -5 -23 -7 -23 -170 l0 -164 63 0 c153 0 237 65 237
183 0 52 -30 102 -77 130 -33 19 -153 31 -200 21z"/>
<path d="M1278 503 c12 -2 30 -2 40 0 9 3 -1 5 -23 4 -22 0 -30 -2 -17 -4z"/>
</g>
</svg>
