<?xml version="1.0" standalone="no"?>
<!DOCTYPE svg PUBLIC "-//W3C//DTD SVG 20010904//EN"
 "http://www.w3.org/TR/2001/REC-SVG-20010904/DTD/svg10.dtd">
<svg version="1.0" xmlns="http://www.w3.org/2000/svg"
 width="300.000000pt" height="163.000000pt" viewBox="0 0 300.000000 163.000000"
 preserveAspectRatio="xMidYMid meet">

<g transform="translate(0.000000,163.000000) scale(0.100000,-0.100000)"
fill="#000000" stroke="none">
<path d="M1416 1614 c-70 -22 -149 -103 -170 -174 -20 -66 -20 -93 -1 -156 39
-132 141 -195 347 -214 164 -14 217 -61 238 -210 16 -111 -1 -188 -53 -238
-43 -41 -69 -50 -190 -62 -114 -11 -144 -18 -204 -48 -118 -61 -175 -191 -138
-317 23 -81 99 -157 180 -181 74 -21 151 -13 217 23 91 49 135 125 168 288 11
55 28 111 38 125 35 47 90 68 204 79 125 12 205 40 261 90 85 77 112 204 63
306 -51 109 -138 157 -322 178 -194 22 -224 48 -250 209 -24 151 -70 231 -163
281 -64 35 -155 44 -225 21z"/>
<path d="M840 1081 c-75 -24 -145 -87 -176 -158 -21 -49 -22 -157 -2 -204 24
-55 87 -119 143 -145 56 -27 147 -31 202 -11 135 50 208 195 169 331 -20 67
-78 136 -141 168 -43 23 -152 33 -195 19z"/>
<path d="M186 534 c-72 -23 -150 -104 -171 -179 -39 -133 23 -269 150 -326 54
-25 166 -25 221 0 164 74 208 288 89 429 -62 73 -191 107 -289 76z"/>
<path d="M2663 540 c-83 -19 -167 -96 -194 -177 -15 -47 -7 -159 15 -204 45
-94 135 -149 242 -149 166 0 288 133 271 295 -16 161 -176 273 -334 235z"/>
</g>
</svg>
